# xmcd
# 
# Track frame offsets:
#     150
#     20860
#     28819
#     35367
#     56621
# 
# Disc length: 960
# 
# Revision: 0
# Processed by: cddbd v1.5.2PL0 Copyright (c) Steve Scherf et al.
# Submitted via: fre:ac v1.0.17
# 
DISCID=3e03be05
DTITLE=Bride of Chaotica - Winter Tales
DYEAR=2015
DGENRE=Instrumental Rock
TTITLE0=God Rest Ye Merry Gentlemen
TTITLE1=Deck the Halls
TTITLE2=Greensleeves
TTITLE3=The First Noel
TTITLE4=Auld Lang Syne
EXTD=
EXTT0=
EXTT1=
EXTT2=
EXTT3=
EXTT4=
PLAYORDER=
